<?xml version="1.0" encoding="UTF-8" standalone="no"?>
<!-- Created with Inkscape (http://www.inkscape.org/) -->

<svg
   xmlns:dc="http://purl.org/dc/elements/1.1/"
   xmlns:cc="http://creativecommons.org/ns#"
   xmlns:rdf="http://www.w3.org/1999/02/22-rdf-syntax-ns#"
   xmlns:svg="http://www.w3.org/2000/svg"
   xmlns="http://www.w3.org/2000/svg"
   xmlns:sodipodi="http://sodipodi.sourceforge.net/DTD/sodipodi-0.dtd"
   xmlns:inkscape="http://www.inkscape.org/namespaces/inkscape"
   width="24.616337mm"
   height="37.789753mm"
   viewBox="0 0 24.616337 37.789753"
   version="1.1"
   id="svg8"
   inkscape:version="0.92.5 (2060ec1f9f, 2020-04-08)"
   sodipodi:docname="catty.svg">
  <defs
     id="defs2">
    <inkscape:path-effect
       is_visible="true"
       id="path-effect857"
       effect="spiro" />
    <inkscape:path-effect
       effect="spiro"
       id="path-effect829"
       is_visible="true" />
  </defs>
  <sodipodi:namedview
     id="base"
     pagecolor="#ffffff"
     bordercolor="#666666"
     borderopacity="1.0"
     inkscape:pageopacity="0.0"
     inkscape:pageshadow="2"
     inkscape:zoom="3.959798"
     inkscape:cx="58.600925"
     inkscape:cy="82.711006"
     inkscape:document-units="mm"
     inkscape:current-layer="g853"
     showgrid="false"
     inkscape:window-width="1280"
     inkscape:window-height="960"
     inkscape:window-x="0"
     inkscape:window-y="27"
     inkscape:window-maximized="1" />
  <metadata
     id="metadata5">
    <rdf:RDF>
      <cc:Work
         rdf:about="">
        <dc:format>image/svg+xml</dc:format>
        <dc:type
           rdf:resource="http://purl.org/dc/dcmitype/StillImage" />
        <dc:title></dc:title>
      </cc:Work>
    </rdf:RDF>
  </metadata>
  <g
     inkscape:label="Layer 1"
     inkscape:groupmode="layer"
     id="layer1"
     transform="translate(-62.0421,-115.43597)">
    <g
       id="g853"
       transform="translate(-4.6605648e-6,4.1451021e-6)">
      <path
         sodipodi:nodetypes="ccccc"
         inkscape:connector-curvature="0"
         id="path815"
         d="m 63.6098,117.23357 c 16.695979,25.4444 19.229402,23.01653 22.31065,-1.6651 l -0.77118,0.19193 c -4.093299,28.48634 -6.29318,18.69869 -20.837471,1.384 z"
         style="fill:#784421;stroke:#000000;stroke-width:0.26499999;stroke-linecap:round;stroke-linejoin:round;stroke-miterlimit:4;stroke-dasharray:none;stroke-dashoffset:0;stroke-opacity:1" />
      <path
         sodipodi:nodetypes="ccc"
         inkscape:connector-curvature="0"
         id="path817"
         d="m 80.180856,135.23512 c 1.973479,3.15327 2.115284,18.92779 6.315557,17.80235 l -5.014182,-18.71318"
         style="fill:#784421;stroke:#000000;stroke-width:0.26458332px;stroke-linecap:butt;stroke-linejoin:miter;stroke-opacity:1" />
      <path
         inkscape:original-d="m 64.311799,117.1444 c 1.82453,1.05297 3.711297,1.9434 5.566548,2.91549 1.855253,0.9721 -5.070915,4.34647 -7.606771,6.52009 -2.535854,2.17363 4.945454,2.55108 7.417784,3.82701 2.47233,1.27594 6.772338,-6.92983 10.158108,-10.39434 0.45145,-0.46195 0.845354,-0.85111 1.193221,-1.18205 2.261058,-2.15101 2.577185,-1.84201 4.108579,-3.0702"
         inkscape:path-effect="#path-effect829"
         inkscape:connector-curvature="0"
         id="path827"
         d="m 64.311799,117.1444 c 0.439398,-0.61845 1.107899,-1.07011 1.845646,-1.24698 0.737748,-0.17687 1.538373,-0.0774 2.210428,0.27457 0.672054,0.35199 1.209736,0.95348 1.484472,1.66064 0.274735,0.70716 0.284154,1.51388 0.026,2.22726 -0.293244,0.81035 -0.908586,1.47185 -1.611084,1.97102 -0.702498,0.49916 -1.495241,0.85352 -2.278203,1.21357 -0.782962,0.36005 -1.569159,0.73348 -2.248197,1.26412 -0.679038,0.53063 -1.250986,1.23771 -1.469287,2.07138 -0.220573,0.84235 -0.05673,1.76624 0.388769,2.51439 0.445503,0.74815 1.158413,1.32192 1.962493,1.65608 0.80408,0.33415 1.694997,0.43579 2.562011,0.35522 0.867015,-0.0806 1.711528,-0.33898 2.504511,-0.69868 2.22687,-1.01011 4.015957,-2.78603 5.566695,-4.67666 1.550737,-1.89063 2.918075,-3.93464 4.591413,-5.71768 0.383208,-0.40833 0.781781,-0.80218 1.193221,-1.18205 1.258411,-1.16184 2.637776,-2.19259 4.108579,-3.0702"
         style="fill:none;stroke:#ff6600;stroke-width:0.465;stroke-linecap:butt;stroke-linejoin:miter;stroke-miterlimit:4;stroke-dasharray:none;stroke-opacity:1"
         sodipodi:nodetypes="cccccsc" />
      <path
         sodipodi:nodetypes="cccccsc"
         style="fill:none;stroke:#ff6600;stroke-width:0.465;stroke-linecap:butt;stroke-linejoin:miter;stroke-miterlimit:4;stroke-dasharray:none;stroke-opacity:1"
         d="m 64.311799,117.1444 c 0.439398,-0.61845 1.107899,-1.07011 1.845646,-1.24698 0.737748,-0.17687 1.538373,-0.0774 2.210428,0.27457 0.672054,0.35199 1.209736,0.95348 1.484472,1.66064 0.274735,0.70716 0.284154,1.51388 0.026,2.22726 -0.293244,0.81035 -0.908586,1.47185 -1.611084,1.97102 -0.702498,0.49916 -1.495241,0.85352 -2.278203,1.21357 -0.782962,0.36005 -1.569159,0.73348 -2.248197,1.26412 -0.679038,0.53063 -1.250986,1.23771 -1.469287,2.07138 -0.220573,0.84235 -0.05673,1.76624 0.388769,2.51439 0.445503,0.74815 1.158413,1.32192 1.962493,1.65608 0.80408,0.33415 1.694997,0.43579 2.562011,0.35522 0.867015,-0.0806 1.711528,-0.33898 2.504511,-0.69868 2.22687,-1.01011 4.015957,-2.78603 5.566695,-4.67666 1.550737,-1.89063 2.918075,-3.93464 4.591413,-5.71768 0.383208,-0.40833 0.781781,-0.80218 1.193221,-1.18205 1.258411,-1.16184 2.637776,-2.19259 4.108579,-3.0702"
         id="path855"
         inkscape:connector-curvature="0"
         inkscape:path-effect="#path-effect857"
         inkscape:original-d="m 64.311799,117.1444 c 1.82453,1.05297 3.711297,1.9434 5.566548,2.91549 1.855253,0.9721 -5.070915,4.34647 -7.606771,6.52009 -2.535854,2.17363 4.945454,2.55108 7.417784,3.82701 2.47233,1.27594 6.772338,-6.92983 10.158108,-10.39434 0.45145,-0.46195 0.845354,-0.85111 1.193221,-1.18205 2.261058,-2.15101 2.577185,-1.84201 4.108579,-3.0702" />
    </g>
  </g>
</svg>
